#N canvas 382 66 767 622 12;
#X obj 130 562 deapnote;
#X floatatom 52 257 5 0 0 0 - - -;
#X obj 52 226 random 13;
#X obj 401 408 sel 0 1 2;
#X obj 118 533 makenote 100 300;
#X floatatom 379 372 5 0 0 0 - - -;
#X obj 373 344 counter 4;
#X text 401 319 changes the rhythm;
#X obj 143 10 inlet;
#X obj 130 593 outlet;
#X obj 52 299 sel 0 3 4 5 7 10 12;
#X msg 39 375 0, f 2;
#X msg 66 375 3, f 2;
#X msg 91 375 4, f 2;
#X msg 115 375 5, f 2;
#X msg 142 374 7, f 2;
#X msg 168 374 10, f 2;
#X msg 195 374 12, f 2;
#X text 376 52 generates random blues melody;
#X obj 285 60 inlet;
#X obj 218 437 +;
#X floatatom 279 278 5 0 0 0 - - -;
#X floatatom 177 464 5 0 0 0 - - -;
#X obj 15 10 inlet;
#X obj 142 112 timer;
#X obj 143 37 counter 0 1;
#X obj 143 85 sel 0 1;
#X floatatom 143 60 5 0 0 0 - - -;
#X floatatom 142 135 5 0 0 0 - - -;
#X obj 54 200 metro;
#X floatatom 141 188 5 0 0 0 - - -;
#X obj 269 373 * 2;
#X floatatom 269 397 5 0 0 0 - - -;
#X obj 49 118 tgl 15 0 empty empty empty 17 7 0 10 -262144 -1 -1 0
1;
#X obj 258 441 / 3;
#X obj 307 441 * 0.66;
#X floatatom 381 447 5 0 0 0 - - -;
#X floatatom 253 528 5 0 0 0 - - -;
#X obj 252 474 float;
#X obj 302 488 float;
#X obj 384 485 float;
#X obj 142 157 / 2;
#X text 175 160 if they tap 4th notes \, this will be 8th notes;
#X obj 259 7 bng 15 250 50 0 empty empty empty 17 7 0 10 -262144 -1
-1;
#X connect 0 0 9 0;
#X connect 1 0 10 0;
#X connect 2 0 1 0;
#X connect 3 0 38 0;
#X connect 3 1 39 0;
#X connect 3 2 40 0;
#X connect 4 0 0 0;
#X connect 4 1 0 1;
#X connect 5 0 3 0;
#X connect 6 0 5 0;
#X connect 8 0 25 0;
#X connect 10 0 11 0;
#X connect 10 1 12 0;
#X connect 10 2 13 0;
#X connect 10 3 14 0;
#X connect 10 4 15 0;
#X connect 10 5 16 0;
#X connect 10 6 17 0;
#X connect 10 7 6 0;
#X connect 11 0 20 0;
#X connect 12 0 20 0;
#X connect 13 0 20 0;
#X connect 14 0 20 0;
#X connect 15 0 20 0;
#X connect 16 0 20 0;
#X connect 17 0 20 0;
#X connect 19 0 21 0;
#X connect 20 0 22 0;
#X connect 21 0 20 1;
#X connect 22 0 4 0;
#X connect 23 0 33 0;
#X connect 24 0 28 0;
#X connect 25 0 27 0;
#X connect 26 0 24 0;
#X connect 26 1 24 1;
#X connect 27 0 26 0;
#X connect 28 0 41 0;
#X connect 29 0 2 0;
#X connect 30 0 29 1;
#X connect 30 0 31 0;
#X connect 31 0 32 0;
#X connect 32 0 34 0;
#X connect 32 0 35 0;
#X connect 32 0 36 0;
#X connect 33 0 29 0;
#X connect 34 0 38 1;
#X connect 35 0 39 1;
#X connect 36 0 40 1;
#X connect 37 0 4 2;
#X connect 38 0 37 0;
#X connect 39 0 37 0;
#X connect 40 0 37 0;
#X connect 41 0 30 0;
#X connect 43 0 25 0;
